{"title":"J_Kimmel_Sarah_Shahi_720p_Cropped_2011-02-0_TTL","uid":6162405,"size":75866465,"categoryP":"video","categoryS":"hd___tv_shows","magnet":"?xt=urn:btih:c42a0aa96898133661ca36835cc639904d81890b&amp;dn=J_Kimmel_Sarah_Shahi_720p_Cropped_2011-02-0_TTL&amp;tr=udp%3A%2F%2Ftracker.openbittorrent.com%3A80&amp;tr=udp%3A%2F%2Fopen.demonii.com%3A1337&amp;tr=udp%3A%2F%2Ftracker.coppersurfer.tk%3A6969&amp;tr=udp%3A%2F%2Fexodus.desync.com%3A6969","seeders":0,"leechers":1,"uploader":"thetorrentlord","files":2,"time":1297260375,"description":"This was slightly cropped at the bottom to remove an annoying weather alert.\t\t\t\t\t\t\t\t\t\t\t\t\t\t\t\t\t\t\t\t\t\t\t\t\t\t\t\t\t\t\t\t\t\t\t\t\t\t\t   ************************************************************************************************************************************************************************************************************\t\t\t\t\t\t\t\t\t\t\t\t\t\t\t\t\t\t\t\t\t\t\t\t\t\t\t\t\t\t\t\t\t\t\t\t\t\t\t\t\t\t\t\t\t\t\t\t\t\t\t\t\t\t\t\t\t\t\t\t\t\t\t\t\tJ_Kimmel_Sarah_Shahi_720p_Cropped_2011-02-0_TTL.avi\nFormat                           : AVI\nFormat/Info                      : Audio Video Interleave\nFile size                        : 72.3 MiB\nDuration                         : 6mn 34s\nOverall bit rate                 : 1 538 Kbps\n\nVideo\nID                               : 0\nFormat                           : MPEG-4 Visual\nFormat profile                   : Advanced Simple@L5\nFormat settings, BVOP            : Yes\nFormat settings, QPel            : No\nFormat settings, GMC             : No warppoints\nFormat settings, Matrix          : Default (H.263)\nCodec ID                         : XVID\nCodec ID/Hint                    : XviD\nDuration                         : 6mn 34s\nBit rate                         : 1 412 Kbps\nWidth                            : 1 280 pixels\nHeight                           : 590 pixels\nDisplay aspect ratio             : 2.2:1\nFrame rate                       : 29.970 fps\nColor space                      : YUV\nChroma subsampling               : 4:2:0\nBit depth                        : 8 bits\nScan type                        : Progressive\nBits/(Pixel*Frame)               : 0.062\nStream size                      : 66.4 MiB (92%)\nWriting library                  : XviD 1.2.0.dev47 (UTC 2006-11-01)\n\nAudio\nID                               : 1\nFormat                           : MPEG Audio\nFormat version                   : Version 1\nFormat profile                   : Layer 3\nMode                             : Joint stereo\nMode extension                   : MS Stereo\nCodec ID                         : 55\nCodec ID/Hint                    : MP3\nDuration                         : 6mn 34s\nBit rate mode                    : Constant\nBit rate                         : 112 Kbps\nChannel(s)                       : 2 channels\nSampling rate                    : 48.0 KHz\nBit depth                        : 16 bits\nStream size                      : 5.26 MiB (7%)\nAlignment                        : Aligned on interleaves\nInterleave, duration             : 24 ms (0.72 video frame)\n\n","torrent":{"xt":"urn:btih:c42a0aa96898133661ca36835cc639904d81890b","amp;dn":"J_Kimmel_Sarah_Shahi_720p_Cropped_2011-02-0_TTL","amp;tr":["udp%3A%2F%2Ftracker.openbittorrent.com%3A80","udp%3A%2F%2Fopen.demonii.com%3A1337","udp%3A%2F%2Ftracker.coppersurfer.tk%3A6969","udp%3A%2F%2Fexodus.desync.com%3A6969"],"infoHash":"c42a0aa96898133661ca36835cc639904d81890b","infoHashBuffer":{"type":"Buffer","data":[196,42,10,169,104,152,19,54,97,202,54,131,92,198,57,144,77,129,137,11]},"announce":[],"urlList":[]}}